:FULLY-SPECIFIED
:FORCE-ALL-JOINTS-BE-3DOF
:DEGREES
291
root 9.8406 16.6608 4.00334 7.79494 4.29727 3.33517
lfemur -1.17659 3.59886 -26.9047
ltibia 10.4519 -0 0
lfoot -12.5654 2.13044 0.0498334
ltoes 1.02023 -0 0
rfemur -29.0043 16.3144 6.17314
rtibia 25.1015 -0 0
rfoot -22.4391 -13.7236 1.57756
rtoes -21.1338 0 0
lowerback -7.80364 -3.25223 -5.27034
upperback -1.12318 -3.94376 1.89521
thorax 3.87289 -2.05821 4.38577
lowerneck -19.0848 -5.03605 -13.1607
upperneck 20.6025 -6.318 13.0188
head 10.6397 -2.46795 5.99593
lclavicle -6.90778e-14 1.8575e-15 -5.23717e-31
lhumerus -20.6111 -27.5237 91.2478
lradius 32.296 -0 0
lwrist 11.912 0 0
lhand -10.0676 -20.8818 -0.0104341
lfingers 7.12502 -0 0
lthumb 15.9176 8.47033 -0.0136285
rclavicle -6.90778e-14 1.8575e-15 -5.23717e-31
rhumerus -48.7922 7.06316 -84.173
rradius 37.1727 -0 0
rwrist -20.8477 0 0
rhand -29.9602 -26.2682 -0.00243214
rfingers 7.12502 -0 0
rthumb -3.27897 -56.2226 -0.0023578
292
root 9.85293 16.6687 4.13836 7.75715 4.50627 3.46287
lfemur -0.218478 3.52114 -27.0404
ltibia 9.75506 -0 0
lfoot -12.6906 2.06434 0.0475215
ltoes 1.04224 -0 0
rfemur -29.9824 16.4768 5.72596
rtibia 25.1295 -0 0
rfoot -23.0792 -14.1308 1.50368
rtoes -21.2547 0 0
lowerback -7.81413 -3.36975 -5.38584
upperback -1.08831 -4.09011 1.89414
thorax 3.9326 -2.13464 4.43401
lowerneck -19.0955 -5.01398 -13.1458
upperneck 20.6826 -6.287 12.9785
head 10.6632 -2.45691 5.98566
lclavicle -6.97802e-14 1.73366e-15 -4.99428e-31
lhumerus -20.0182 -28.0224 91.1923
lradius 32.5798 -0 0
lwrist 12.3043 0 0
lhand -10.1534 -20.8616 -0.00995012
lfingers 7.12502 -0 0
lthumb 15.835 8.49774 -0.0129964
rclavicle -6.97802e-14 1.73366e-15 -4.99428e-31
rhumerus -48.8459 7.03942 -84.1045
rradius 37.0552 -0 0
rwrist -20.7933 0 0
rhand -29.9502 -26.3086 -0.00231934
rfingers 7.12502 -0 0
rthumb -3.26931 -56.2631 -0.00224845
293
root 9.86527 16.6765 4.27338 7.71981 4.71536 3.59046
lfemur 0.739743 3.44571 -27.1774
ltibia 9.05827 -0 0
lfoot -12.8158 1.99824 0.0450652
ltoes 1.06424 -0 0
rfemur -30.9626 16.6319 5.27559
rtibia 25.1574 -0 0
rfoot -23.7187 -14.537 1.42527
rtoes -21.3756 0 0
lowerback -7.82439 -3.48729 -5.50134
upperback -1.05344 -4.23646 1.89297
thorax 3.99225 -2.21113 4.48218
lowerneck -19.1062 -4.99191 -13.1309
upperneck 20.7628 -6.25595 12.9382
head 10.6868 -2.44587 5.9754
lclavicle -7.04825e-14 1.60983e-15 -4.73622e-31
lhumerus -19.4221 -28.5205 91.1307
lradius 32.8637 -0 0
lwrist 12.6965 0 0
lhand -10.2392 -20.8414 -0.00943592
lfingers 7.12502 -0 0
lthumb 15.7525 8.52516 -0.0123248
rclavicle -7.04825e-14 1.60983e-15 -4.73622e-31
rhumerus -48.8996 7.01575 -84.036
rradius 36.9378 -0 0
rwrist -20.7389 0 0
rhand -29.9402 -26.349 -0.00219949
rfingers 7.12502 -0 0
rthumb -3.25965 -56.3036 -0.00213227
294
root 9.8776 16.6844 4.4084 7.68292 4.92454 3.71796
lfemur 1.69807 3.37257 -27.3156
ltibia 8.36148 -0 0
lfoot -12.9409 1.93215 0.0424646
ltoes 1.08625 -0 0
rfemur -31.9447 16.7795 4.82215
rtibia 25.1854 -0 0
rfoot -24.3577 -14.9424 1.34232
rtoes -21.4965 0 0
lowerback -7.83441 -3.60485 -5.61683
upperback -1.01856 -4.38282 1.89171
thorax 4.05184 -2.28766 4.53027
lowerneck -19.117 -4.96984 -13.1161
upperneck 20.8429 -6.22484 12.8979
head 10.7103 -2.43482 5.96515
lclavicle -7.11849e-14 1.486e-15 -4.46298e-31
lhumerus -18.8224 -29.018 91.0629
lradius 33.1475 -0 0
lwrist 13.0888 0 0
lhand -10.3249 -20.8212 -0.00889147
lfingers 7.12502 -0 0
lthumb 15.6699 8.55257 -0.0116137
rclavicle -7.11849e-14 1.486e-15 -4.46298e-31
rhumerus -48.9533 6.99213 -83.9675
rradius 36.8203 -0 0
rwrist -20.6845 0 0
rhand -29.9302 -26.3893 -0.00207259
rfingers 7.12502 -0 0
rthumb -3.24998 -56.3442 -0.00200925
295
root 9.88993 16.6923 4.54342 7.6465 5.13379 3.84536
lfemur 2.6565 3.30175 -27.455
ltibia 7.66469 -0 0
lfoot -13.0661 1.86606 0.0397195
ltoes 1.10826 -0 0
rfemur -32.9289 16.9197 4.36579
rtibia 25.2133 -0 0
rfoot -24.996 -15.3467 1.25487
rtoes -21.6173 0 0
lowerback -7.84419 -3.72243 -5.73231
upperback -0.983665 -4.52917 1.89037
thorax 4.11136 -2.36425 4.57828
lowerneck -19.1277 -4.94777 -13.1012
upperneck 20.9229 -6.19368 12.8577
head 10.7339 -2.42377 5.95489
lclavicle -7.18873e-14 1.36216e-15 -4.17455e-31
lhumerus -18.2192 -29.5149 90.9888
lradius 33.4313 -0 0
lwrist 13.4811 0 0
lhand -10.4107 -20.801 -0.00831679
lfingers 7.12502 -0 0
lthumb 15.5874 8.57999 -0.010863
rclavicle -7.18873e-14 1.36216e-15 -4.17455e-31
rhumerus -49.0071 6.96858 -83.8989
rradius 36.7029 -0 0
rwrist -20.63 0 0
rhand -29.9202 -26.4297 -0.00193865
rfingers 7.12502 -0 0
rthumb -3.24032 -56.3847 -0.0018794
296
root 9.90227 16.7001 4.67844 7.61052 5.34312 3.97267
lfemur 3.61503 3.23327 -27.5955
ltibia 6.9679 -0 0
lfoot -13.1913 1.79998 0.03683
ltoes 1.13027 -0 0
rfemur -33.9148 17.0524 3.90665
rtibia 25.2413 -0 0
rfoot -25.6336 -15.7501 1.16291
rtoes -21.7382 0 0
lowerback -7.85374 -3.84003 -5.84779
upperback -0.948762 -4.67552 1.88893
thorax 4.17083 -2.44089 4.62621
lowerneck -19.1384 -4.92569 -13.0863
upperneck 21.003 -6.16246 12.8176
head 10.7575 -2.41271 5.94465
lclavicle -7.25896e-14 1.23833e-15 -3.87095e-31
lhumerus -17.6123 -30.0111 90.9082
lradius 33.7151 -0 0
lwrist 13.8734 0 0
lhand -10.4965 -20.7808 -0.00771188
lfingers 7.12502 -0 0
lthumb 15.5048 8.6074 -0.0100729
rclavicle -7.25896e-14 1.23833e-15 -3.87095e-31
rhumerus -49.0609 6.9451 -83.8304
rradius 36.5854 -0 0
rwrist -20.5756 0 0
rhand -29.9102 -26.4701 -0.00179765
rfingers 7.12502 -0 0
rthumb -3.23066 -56.4252 -0.00174271
297
root 9.9146 16.708 4.81346 7.575 5.55253 4.0999
lfemur 4.57366 3.16714 -27.7372
ltibia 6.27111 -0 0
lfoot -13.3164 1.73391 0.0337963
ltoes 1.15228 -0 0
rfemur -34.9026 17.1775 3.44487
rtibia 25.2692 -0 0
rfoot -26.2706 -16.1524 1.06648
rtoes -21.8591 0 0
lowerback -7.86305 -3.95765 -5.96327
upperback -0.913847 -4.82187 1.88741
thorax 4.23023 -2.51757 4.67407
lowerneck -19.1491 -4.90362 -13.0715
upperneck 21.083 -6.13119 12.7775
head 10.781 -2.40165 5.93441
lclavicle -7.3292e-14 1.1145e-15 -3.55217e-31
lhumerus -17.0014 -30.5065 90.8212
lradius 33.9989 -0 0
lwrist 14.2656 0 0
lhand -10.5822 -20.7606 -0.00707672
lfingers 7.12502 -0 0
lthumb 15.4223 8.63481 -0.00924331
rclavicle -7.3292e-14 1.1145e-15 -3.55217e-31
rhumerus -49.1147 6.92168 -83.7618
rradius 36.468 -0 0
rwrist -20.5212 0 0
rhand -29.9002 -26.5104 -0.00164961
rfingers 7.12502 -0 0
rthumb -3.22099 -56.4657 -0.00159919
298
root 9.92693 16.7159 4.94848 7.53994 5.76202 4.22704
lfemur 5.5324 3.10339 -27.8799
ltibia 5.57432 -0 0
lfoot -13.4416 1.66784 0.0306181
ltoes 1.17428 -0 0
rfemur -35.892 17.2949 2.98059
rtibia 25.2972 -0 0
rfoot -26.9068 -16.5536 0.965586
rtoes -21.9799 0 0
lowerback -7.87212 -4.07528 -6.07874
upperback -0.878921 -4.96822 1.88579
thorax 4.28958 -2.59431 4.72185
lowerneck -19.1598 -4.88153 -13.0566
upperneck 21.163 -6.09986 12.7374
head 10.8046 -2.39058 5.92417
lclavicle -7.39944e-14 9.90665e-16 -3.2182e-31
lhumerus -16.3866 -31.001 90.7275
lradius 34.2828 -0 0
lwrist 14.6579 0 0
lhand -10.668 -20.7404 -0.00641133
lfingers 7.12502 -0 0
lthumb 15.3397 8.66222 -0.00837421
rclavicle -7.39944e-14 9.90665e-16 -3.2182e-31
rhumerus -49.1685 6.89832 -83.6932
rradius 36.3505 -0 0
rwrist -20.4668 0 0
rhand -29.8901 -26.5508 -0.00149451
rfingers 7.12502 -0 0
rthumb -3.21133 -56.5062 -0.00144884
299
root 9.93927 16.7237 5.0835 7.50533 5.97159 4.3541
lfemur 6.49123 3.04203 -28.0237
ltibia 4.87753 -0 0
lfoot -13.5667 1.60178 0.0272957
ltoes 1.19629 -0 0
rfemur -36.883 17.4047 2.51398
rtibia 25.3251 -0 0
rfoot -27.5424 -16.9537 0.860246
rtoes -22.1008 0 0
lowerback -7.88096 -4.19294 -6.19421
upperback -0.843983 -5.11457 1.88408
thorax 4.34886 -2.67109 4.76956
lowerneck -19.1705 -4.85945 -13.0417
upperneck 21.2429 -6.06847 12.6974
head 10.8281 -2.37951 5.91394
lclavicle -7.46967e-14 8.66832e-16 -2.86906e-31
lhumerus -15.7675 -31.4947 90.6271
lradius 34.5666 -0 0
lwrist 15.0502 0 0
lhand -10.7538 -20.7202 -0.00571571
lfingers 7.12502 -0 0
lthumb 15.2572 8.68963 -0.00746562
rclavicle -7.46967e-14 8.66832e-16 -2.86906e-31
rhumerus -49.2224 6.87503 -83.6246
rradius 36.2331 -0 0
rwrist -20.4124 0 0
rhand -29.8801 -26.5912 -0.00133237
rfingers 7.12502 -0 0
rthumb -3.20167 -56.5468 -0.00129165
300
root 9.9516 16.7316 5.21852 7.47118 6.18123 4.48108
lfemur 7.45017 2.98309 -28.1685
ltibia 4.18074 -0 0
lfoot -13.6919 1.53573 0.023829
ltoes 1.2183 -0 0
rfemur -37.8754 17.5067 2.04517
rtibia 25.3531 -0 0
rfoot -28.1771 -17.3525 0.750478
rtoes -22.2217 0 0
lowerback -7.88956 -4.31061 -6.30969
upperback -0.809033 -5.26092 1.88229
thorax 4.40809 -2.74792 4.81719
lowerneck -19.1812 -4.83736 -13.0269
upperneck 21.3229 -6.03703 12.6575
head 10.8517 -2.36844 5.90371
lclavicle -7.53991e-14 7.42999e-16 -2.50473e-31
lhumerus -15.1442 -31.9874 90.52
lradius 34.8504 -0 0
lwrist 15.4425 0 0
lhand -10.8395 -20.7 -0.00498986
lfingers 7.12502 -0 0
lthumb 15.1746 8.71704 -0.00651755
rclavicle -7.53991e-14 7.42999e-16 -2.50473e-31
rhumerus -49.2763 6.8518 -83.556
rradius 36.1156 -0 0
rwrist -20.358 0 0
rhand -29.8701 -26.6315 -0.00116318
rfingers 7.12502 -0 0
rthumb -3.192 -56.5873 -0.00112763
